<svg width="145" height="44" viewBox="0 0 145 44" fill="none" xmlns="http://www.w3.org/2000/svg">
<g opacity="0.6">
<path d="M27.2188 0V35.3H19.6135V32.9C17.9124 34.8 15.5107 36 12.1084 36C5.5038 36 0 30.2 0 22.7C0 15.2 5.5038 9.4 12.1084 9.4C15.5107 9.4 18.0124 10.6 19.6135 12.5V0H27.2188ZM19.6135 22.7C19.6135 18.9 17.1118 16.5 13.6094 16.5C10.107 16.5 7.60524 18.9 7.60524 22.7C7.60524 26.5 10.107 28.9 13.6094 28.9C17.1118 28.8 19.6135 26.5 19.6135 22.7Z" fill="black"/>
<g filter="url(#filter0_d_11534_7396)">
<path d="M43.7298 29.1999C45.8313 29.1999 47.5325 28.3999 48.5332 27.2999L54.6374 30.7999C52.1356 34.1999 48.4331 35.9999 43.6298 35.9999C35.0238 35.9999 29.6201 30.1999 29.6201 22.6999C29.6201 15.1999 35.0238 9.3999 43.0294 9.3999C50.4345 9.3999 55.8382 15.0999 55.8382 22.6999C55.8382 23.7999 55.7381 24.7999 55.538 25.6999H37.6256C38.6263 28.2999 40.9279 29.1999 43.7298 29.1999ZM48.333 20.0999C47.5325 17.1999 45.2309 16.0999 42.9293 16.0999C40.0273 16.0999 38.126 17.4999 37.4255 20.0999H48.333Z" fill="black"/>
<path d="M43.7298 29.6999C45.7741 29.6999 47.4947 28.9847 48.6188 27.9254L53.8921 30.949C51.5048 33.9196 48.0753 35.4999 43.6298 35.4999C39.4424 35.4999 36.071 34.0911 33.7484 31.806C31.425 29.5201 30.1201 26.3272 30.1201 22.6999C30.1201 15.4689 35.3071 9.8999 43.0294 9.8999C50.1386 9.8999 55.3382 15.3559 55.3382 22.6999C55.3382 23.6104 55.2677 24.4431 55.1291 25.1999H37.6256H36.8974L37.159 25.8795C37.7027 27.2922 38.6114 28.2612 39.7704 28.8679C40.917 29.4681 42.2809 29.6999 43.7298 29.6999ZM48.333 20.5999H48.9897L48.815 19.9669C48.3842 18.4062 47.5388 17.3028 46.47 16.5955C45.4087 15.893 44.1566 15.5999 42.9293 15.5999C41.3981 15.5999 40.0871 15.9699 39.0572 16.7209C38.0247 17.4738 37.3175 18.5787 36.9427 19.9698L36.773 20.5999H37.4255H48.333Z" stroke="black"/>
</g>
<path d="M82.1563 10.1001L72.8499 35.3001H64.2439L54.9375 10.1001H63.3433L68.647 26.1001L73.9506 10.1001C73.9506 10.1001 82.1563 10.1001 82.1563 10.1001Z" fill="black"/>
<path d="M83.458 10.1001H91.0633V35.3001H83.458V10.1001Z" fill="black"/>
<path d="M93.665 22.6999C93.665 15.1999 99.369 9.3999 107.074 9.3999C111.978 9.3999 116.281 11.9999 118.482 15.8999L111.878 19.6999C110.977 17.8999 109.176 16.8999 106.974 16.8999C103.672 16.8999 101.27 19.2999 101.27 22.6999C101.27 26.1999 103.672 28.4999 106.974 28.4999C109.176 28.4999 111.077 27.3999 111.878 25.6999L118.482 29.4999C116.381 33.3999 112.078 35.9999 107.074 35.9999C99.369 35.9999 93.665 30.1999 93.665 22.6999Z" fill="black"/>
<path d="M132.892 29.1999C134.993 29.1999 136.695 28.3999 137.695 27.2999L143.799 30.7999C141.298 34.1999 137.595 35.9999 132.792 35.9999C124.186 35.9999 118.782 30.1999 118.782 22.6999C118.782 15.1999 124.286 9.3999 132.191 9.3999C139.597 9.3999 145 15.0999 145 22.6999C145 23.7999 144.9 24.7999 144.7 25.6999H126.788C127.788 28.2999 130.09 29.1999 132.892 29.1999ZM137.595 20.0999C136.795 17.1999 134.493 16.0999 132.191 16.0999C129.289 16.0999 127.388 17.4999 126.688 20.0999H137.595Z" fill="black"/>
<path d="M83.458 0V10.1L91.0633 0H83.458Z" fill="#510094"/>
</g>
<defs>
<filter id="filter0_d_11534_7396" x="25.6201" y="9.3999" width="34.2181" height="34.6001" filterUnits="userSpaceOnUse" color-interpolation-filters="sRGB">
<feFlood flood-opacity="0" result="BackgroundImageFix"/>
<feColorMatrix in="SourceAlpha" type="matrix" values="0 0 0 0 0 0 0 0 0 0 0 0 0 0 0 0 0 0 127 0" result="hardAlpha"/>
<feOffset dy="4"/>
<feGaussianBlur stdDeviation="2"/>
<feComposite in2="hardAlpha" operator="out"/>
<feColorMatrix type="matrix" values="0 0 0 0 0 0 0 0 0 0 0 0 0 0 0 0 0 0 0.25 0"/>
<feBlend mode="normal" in2="BackgroundImageFix" result="effect1_dropShadow_11534_7396"/>
<feBlend mode="normal" in="SourceGraphic" in2="effect1_dropShadow_11534_7396" result="shape"/>
</filter>
</defs>
</svg>
